<svg width="512" height="512" viewBox="0 0 512 512" fill="none" xmlns="http://www.w3.org/2000/svg">
<g clip-path="url(#clip0_389_5063)">
<path d="M158.934 186.446C160.562 176.583 164.328 167.196 169.968 158.943C175.607 150.689 182.984 143.769 191.58 138.667C201.447 132.618 212.633 129.05 224.18 128.269C235.728 127.488 247.293 129.516 257.884 134.181C268.476 138.846 277.78 146.009 284.999 155.055C292.218 164.102 297.137 174.763 299.335 186.126C300.336 191.001 300.861 195.962 300.904 200.939V310.873C300.785 316.604 302.477 322.227 305.74 326.941C309.002 331.655 313.668 335.22 319.074 337.128C324.48 339.036 330.349 339.19 335.848 337.569C341.346 335.947 346.193 332.632 349.699 328.096C350.61 326.844 351.754 325.78 353.068 324.96C351.615 335.877 347.172 346.18 340.23 354.73C321.322 378.402 296.663 387.928 267.067 381.422C239.329 375.352 221.467 357.344 213.625 330.304C211.508 321.306 210.629 312.063 211.011 302.828C210.72 269.107 210.633 235.357 211.011 201.636C211.155 197.611 210.428 193.603 208.878 189.885C207.329 186.168 204.995 182.829 202.035 180.099C199.075 177.368 195.559 175.309 191.73 174.063C187.9 172.817 183.846 172.415 179.846 172.882C170.842 174.189 164.568 179.504 158.934 186.446Z" fill="#1684AC"/>
<path d="M497.999 326.121C496.232 336.387 491.952 346.056 485.539 354.265C469.448 375.09 447.781 385.459 421.641 383.077C394.078 380.55 373.746 366.144 362.128 340.759C357.66 331.133 355.454 320.612 355.681 310.001C356.349 273.753 355.971 237.389 355.913 201.229C356.083 195.176 354.267 189.233 350.743 184.308C347.218 179.384 342.179 175.748 336.395 173.956C324.777 170.209 313.566 174.304 305.549 185.399C305.172 185.825 304.764 186.223 304.33 186.59L302.674 185.922C305.127 178.517 308.038 171.271 311.387 164.226C319.262 150.505 331.448 139.769 346.052 133.686C360.655 127.603 376.859 126.513 392.146 130.587C407.432 134.66 420.946 143.668 430.586 156.212C440.227 168.755 445.455 184.131 445.458 199.951V307.561C444.962 315.169 447.277 322.693 451.964 328.706C454.531 331.945 457.808 334.551 461.541 336.325C465.274 338.098 469.365 338.991 473.498 338.935C477.631 338.879 481.695 337.875 485.379 336.001C489.063 334.127 492.268 331.432 494.746 328.125L496.779 325.511L497.999 326.121Z" fill="#333333"/>
<path d="M14 185.284C14.7552 182.641 15.3941 179.998 16.2655 177.413C21.0011 162.688 30.4016 149.906 43.046 140.998C55.6903 132.09 70.891 127.54 86.3502 128.037C119.374 128.763 146.037 151.534 154.315 183.367C155.811 190.309 156.397 197.417 156.057 204.511V307.504C156.057 322.229 162.331 332.337 174.181 337.129C179.87 339.183 186.074 339.315 191.845 337.505C197.616 335.695 202.634 332.043 206.13 327.109C206.305 326.847 206.74 326.731 208.163 325.889C207.945 328.205 207.577 330.504 207.06 332.772C203.751 343.447 197.993 353.201 190.247 361.256C182.5 369.312 172.979 375.446 162.442 379.17C151.905 382.894 140.643 384.105 129.555 382.706C118.467 381.306 107.86 377.336 98.578 371.111C77.2011 356.589 66.6289 336.258 66.6289 310.64V203.001C66.6289 191.528 62.766 182.089 52.3389 176.28C46.7448 173.032 40.165 171.917 33.813 173.139C27.4609 174.361 21.7651 177.839 17.7758 182.931L15.278 185.836L14 185.284Z" fill="#1684AC"/>
</g>
<defs>
<clipPath id="clip0_389_5063">
<rect width="484" height="255.418" fill="white" transform="translate(14 128)"/>
</clipPath>
</defs>
</svg>
