<svg width="30" height="31" viewBox="0 0 30 31" fill="none" xmlns="http://www.w3.org/2000/svg">
<g clip-path="url(#clip0_365_4018)">
<path d="M10.7143 4.78571H19.2857V2.64286H10.7143V4.78571ZM30 15.5V23.5357C30 24.2723 29.7377 24.9029 29.2132 25.4275C28.6886 25.952 28.058 26.2143 27.3214 26.2143H2.67857C1.94196 26.2143 1.31138 25.952 0.78683 25.4275C0.262277 24.9029 0 24.2723 0 23.5357V15.5H11.25V18.1786C11.25 18.4688 11.356 18.7199 11.5681 18.9319C11.7801 19.144 12.0312 19.25 12.3214 19.25H17.6786C17.9688 19.25 18.2199 19.144 18.4319 18.9319C18.644 18.7199 18.75 18.4688 18.75 18.1786V15.5H30ZM17.1429 15.5V17.6429H12.8571V15.5H17.1429ZM30 7.46429V13.8929H0V7.46429C0 6.72768 0.262277 6.0971 0.78683 5.57254C1.31138 5.04799 1.94196 4.78571 2.67857 4.78571H8.57143V2.10714C8.57143 1.66071 8.72768 1.28125 9.04018 0.96875C9.35268 0.65625 9.73214 0.5 10.1786 0.5H19.8214C20.2679 0.5 20.6473 0.65625 20.9598 0.96875C21.2723 1.28125 21.4286 1.66071 21.4286 2.10714V4.78571H27.3214C28.058 4.78571 28.6886 5.04799 29.2132 5.57254C29.7377 6.0971 30 6.72768 30 7.46429Z" fill="white"/>
</g>
<defs>
<clipPath id="clip0_365_4018">
<rect width="30" height="30" fill="white" transform="translate(0 0.5)"/>
</clipPath>
</defs>
</svg>
