<svg width="30" height="30" viewBox="0 0 30 30" fill="none" xmlns="http://www.w3.org/2000/svg">
<path d="M10.7143 4.28571H19.2857V2.14286H10.7143V4.28571ZM30 15V23.0357C30 23.7723 29.7377 24.4029 29.2132 24.9275C28.6886 25.452 28.058 25.7143 27.3214 25.7143H2.67857C1.94196 25.7143 1.31138 25.452 0.78683 24.9275C0.262277 24.4029 0 23.7723 0 23.0357V15H11.25V17.6786C11.25 17.9688 11.356 18.2199 11.5681 18.4319C11.7801 18.644 12.0312 18.75 12.3214 18.75H17.6786C17.9688 18.75 18.2199 18.644 18.4319 18.4319C18.644 18.2199 18.75 17.9688 18.75 17.6786V15H30ZM17.1429 15V17.1429H12.8571V15H17.1429ZM30 6.96429V13.3929H0V6.96429C0 6.22768 0.262277 5.5971 0.78683 5.07254C1.31138 4.54799 1.94196 4.28571 2.67857 4.28571H8.57143V1.60714C8.57143 1.16071 8.72768 0.78125 9.04018 0.46875C9.35268 0.15625 9.73214 0 10.1786 0H19.8214C20.2679 0 20.6473 0.15625 20.9598 0.46875C21.2723 0.78125 21.4286 1.16071 21.4286 1.60714V4.28571H27.3214C28.058 4.28571 28.6886 4.54799 29.2132 5.07254C29.7377 5.5971 30 6.22768 30 6.96429Z" fill="black"/>
</svg>
