<svg width="32" height="35" viewBox="0 0 32 35" fill="none" xmlns="http://www.w3.org/2000/svg">
<mask id="path-1-inside-1_644_6457" fill="white">
<path fill-rule="evenodd" clip-rule="evenodd" d="M16.0002 22.3455C20.3432 21.0111 23.5004 16.968 23.5004 12.1875C23.5004 7.40699 20.3432 3.36387 16.0002 2.02945C16.9882 1.72589 18.0376 1.5625 19.1251 1.5625C24.9931 1.5625 29.7501 6.31948 29.7501 12.1875C29.7501 18.0555 24.9931 22.8125 19.1251 22.8125C18.0376 22.8125 16.9882 22.6491 16.0002 22.3455Z"/>
</mask>
<path fill-rule="evenodd" clip-rule="evenodd" d="M16.0002 22.3455C20.3432 21.0111 23.5004 16.968 23.5004 12.1875C23.5004 7.40699 20.3432 3.36387 16.0002 2.02945C16.9882 1.72589 18.0376 1.5625 19.1251 1.5625C24.9931 1.5625 29.7501 6.31948 29.7501 12.1875C29.7501 18.0555 24.9931 22.8125 19.1251 22.8125C18.0376 22.8125 16.9882 22.6491 16.0002 22.3455Z" fill="black"/>
<path d="M16.0002 22.3455L15.4128 20.4338L9.19075 22.3455L15.4128 24.2573L16.0002 22.3455ZM16.0002 2.02945L15.4128 0.117663L9.19073 2.02945L15.4128 3.94125L16.0002 2.02945ZM21.5004 12.1875C21.5004 16.0652 18.94 19.35 15.4128 20.4338L16.5877 24.2573C21.7465 22.6722 25.5004 17.8709 25.5004 12.1875H21.5004ZM15.4128 3.94125C18.94 5.02499 21.5004 8.30985 21.5004 12.1875H25.5004C25.5004 6.50413 21.7465 1.70276 16.5877 0.117663L15.4128 3.94125ZM16.5877 3.94125C17.3875 3.6955 18.2389 3.5625 19.1251 3.5625V-0.4375C17.8363 -0.4375 16.589 -0.243727 15.4128 0.117663L16.5877 3.94125ZM19.1251 3.5625C23.8886 3.5625 27.7501 7.42404 27.7501 12.1875H31.7501C31.7501 5.21491 26.0977 -0.4375 19.1251 -0.4375V3.5625ZM27.7501 12.1875C27.7501 16.951 23.8886 20.8125 19.1251 20.8125V24.8125C26.0977 24.8125 31.7501 19.1601 31.7501 12.1875H27.7501ZM19.1251 20.8125C18.2389 20.8125 17.3875 20.6795 16.5877 20.4338L15.4128 24.2573C16.589 24.6187 17.8363 24.8125 19.1251 24.8125V20.8125Z" fill="black" mask="url(#path-1-inside-1_644_6457)"/>
<circle cx="12.875" cy="12.1875" r="10.875" fill="black" stroke="black" stroke-width="2"/>
<path d="M1 34.6875V34.6875C1 28.8195 5.75698 24.0625 11.625 24.0625H14.125C19.993 24.0625 24.75 28.8195 24.75 34.6875V34.6875" stroke="black" stroke-width="2"/>
<path d="M23.5 24.0625V24.0625C27.6421 24.0625 31 27.4204 31 31.5625V32.8125" stroke="black" stroke-width="2"/>
</svg>
