<svg width="30" height="30" viewBox="0 0 30 30" fill="none" xmlns="http://www.w3.org/2000/svg">
<path d="M15 12.8571C17.6451 12.8571 20.1172 12.6172 22.4163 12.1373C24.7154 11.6574 26.529 10.9487 27.8571 10.0112V12.8571C27.8571 13.6272 27.2823 14.3415 26.1328 15C24.9832 15.6585 23.4207 16.1802 21.4453 16.5653C19.4698 16.9503 17.3214 17.1429 15 17.1429C12.6785 17.1429 10.5301 16.9503 8.55465 16.5653C6.57921 16.1802 5.01671 15.6585 3.86715 15C2.7176 14.3415 2.14282 13.6272 2.14282 12.8571V10.0112C3.47095 10.9487 5.28456 11.6574 7.58367 12.1373C9.88278 12.6172 12.3549 12.8571 15 12.8571ZM15 25.7143C17.6451 25.7143 20.1172 25.4743 22.4163 24.9944C24.7154 24.5145 26.529 23.8058 27.8571 22.8683V25.7143C27.8571 26.4844 27.2823 27.1987 26.1328 27.8571C24.9832 28.5156 23.4207 29.0374 21.4453 29.4224C19.4698 29.8075 17.3214 30 15 30C12.6785 30 10.5301 29.8075 8.55465 29.4224C6.57921 29.0374 5.01671 28.5156 3.86715 27.8571C2.7176 27.1987 2.14282 26.4844 2.14282 25.7143V22.8683C3.47095 23.8058 5.28456 24.5145 7.58367 24.9944C9.88278 25.4743 12.3549 25.7143 15 25.7143ZM15 19.2857C17.6451 19.2857 20.1172 19.0458 22.4163 18.5658C24.7154 18.0859 26.529 17.3772 27.8571 16.4397V19.2857C27.8571 20.0558 27.2823 20.7701 26.1328 21.4286C24.9832 22.0871 23.4207 22.6088 21.4453 22.9939C19.4698 23.3789 17.3214 23.5714 15 23.5714C12.6785 23.5714 10.5301 23.3789 8.55465 22.9939C6.57921 22.6088 5.01671 22.0871 3.86715 21.4286C2.7176 20.7701 2.14282 20.0558 2.14282 19.2857V16.4397C3.47095 17.3772 5.28456 18.0859 7.58367 18.5658C9.88278 19.0458 12.3549 19.2857 15 19.2857ZM15 0C17.3214 0 19.4698 0.192522 21.4453 0.577567C23.4207 0.962612 24.9832 1.48438 26.1328 2.14286C27.2823 2.80134 27.8571 3.51562 27.8571 4.28571V6.42857C27.8571 7.19866 27.2823 7.91295 26.1328 8.57143C24.9832 9.22991 23.4207 9.75167 21.4453 10.1367C19.4698 10.5218 17.3214 10.7143 15 10.7143C12.6785 10.7143 10.5301 10.5218 8.55465 10.1367C6.57921 9.75167 5.01671 9.22991 3.86715 8.57143C2.7176 7.91295 2.14282 7.19866 2.14282 6.42857V4.28571C2.14282 3.51562 2.7176 2.80134 3.86715 2.14286C5.01671 1.48438 6.57921 0.962612 8.55465 0.577567C10.5301 0.192522 12.6785 0 15 0Z" fill="#295CB8"/>
</svg>
