<svg width="30" height="31" viewBox="0 0 30 31" fill="none" xmlns="http://www.w3.org/2000/svg">
<g clip-path="url(#clip0_365_4009)">
<path d="M20 16.75H16.25C15.5625 16.75 15 17.3125 15 18V21.75C15 22.4375 15.5625 23 16.25 23H20C20.6875 23 21.25 22.4375 21.25 21.75V18C21.25 17.3125 20.6875 16.75 20 16.75ZM20 4.25V5.5H10V4.25C10 3.5625 9.4375 3 8.75 3C8.0625 3 7.5 3.5625 7.5 4.25V5.5H6.25C4.8625 5.5 3.7625 6.625 3.7625 8L3.75 25.5C3.75 26.875 4.8625 28 6.25 28H23.75C25.125 28 26.25 26.875 26.25 25.5V8C26.25 6.625 25.125 5.5 23.75 5.5H22.5V4.25C22.5 3.5625 21.9375 3 21.25 3C20.5625 3 20 3.5625 20 4.25ZM22.5 25.5H7.5C6.8125 25.5 6.25 24.9375 6.25 24.25V11.75H23.75V24.25C23.75 24.9375 23.1875 25.5 22.5 25.5Z" fill="black"/>
</g>
<defs>
<clipPath id="clip0_365_4009">
<rect width="30" height="30" fill="white" transform="translate(0 0.5)"/>
</clipPath>
</defs>
</svg>
