<svg width="63" height="59" viewBox="0 0 63 59" fill="none" xmlns="http://www.w3.org/2000/svg">
<path fill-rule="evenodd" clip-rule="evenodd" d="M0.458984 9.12695C0.458984 8.02238 1.35441 7.12695 2.45898 7.12695H42.6705C43.7751 7.12695 44.6705 8.02238 44.6705 9.12695C44.6705 10.2315 43.7751 11.127 42.6705 11.127H2.45898C1.35441 11.127 0.458984 10.2315 0.458984 9.12695Z" fill="#00B2FF"/>
<path fill-rule="evenodd" clip-rule="evenodd" d="M22.5645 0.424805C23.669 0.424805 24.5645 1.32024 24.5645 2.4248V9.12673C24.5645 10.2313 23.669 11.1267 22.5645 11.1267C21.4599 11.1267 20.5645 10.2313 20.5645 9.12673V2.4248C20.5645 1.32024 21.4599 0.424805 22.5645 0.424805Z" fill="#00B2FF"/>
<path fill-rule="evenodd" clip-rule="evenodd" d="M47.1387 22.7646C47.9388 22.7646 48.6619 23.2414 48.977 23.9768L62.3809 55.2525C62.816 56.2677 62.3457 57.4435 61.3304 57.8786C60.3152 58.3137 59.1394 57.8434 58.7043 56.8281L47.1387 29.8418L35.5732 56.8281C35.1381 57.8434 33.9623 58.3137 32.947 57.8786C31.9318 57.4435 31.4615 56.2677 31.8966 55.2525L45.3004 23.9768C45.6156 23.2414 46.3387 22.7646 47.1387 22.7646Z" fill="#00B2FF"/>
<path fill-rule="evenodd" clip-rule="evenodd" d="M35.8535 47.1045C35.8535 45.9999 36.7489 45.1045 37.8535 45.1045H56.4234C57.528 45.1045 58.4234 45.9999 58.4234 47.1045C58.4234 48.2091 57.528 49.1045 56.4234 49.1045H37.8535C36.7489 49.1045 35.8535 48.2091 35.8535 47.1045Z" fill="#00B2FF"/>
<path fill-rule="evenodd" clip-rule="evenodd" d="M35.5329 7.19043C36.6023 7.46688 37.2451 8.55793 36.9686 9.62734L35.1082 9.14639C36.9686 9.62735 36.9688 9.62687 36.9686 9.62734L36.9672 9.63274L36.9646 9.64292L36.9555 9.67746C36.9477 9.70672 36.9366 9.74838 36.922 9.80192C36.8928 9.90901 36.85 10.0637 36.793 10.262C36.6792 10.6585 36.5091 11.2297 36.28 11.9436C35.822 13.3704 35.127 15.3718 34.1731 17.6894C32.2728 22.3065 29.311 28.2631 25.0902 33.4299C20.9311 38.5212 16.6677 42.3545 13.441 44.9179C11.8262 46.2008 10.467 47.1688 9.50451 47.8203C9.02314 48.1462 8.64062 48.3931 8.37454 48.5608C8.24149 48.6447 8.13751 48.7088 8.06479 48.7532C8.02844 48.7753 7.9999 48.7925 7.97944 48.8048L7.95486 48.8195L7.94718 48.8241L7.94345 48.8263C7.94301 48.8265 7.9426 48.8268 6.9261 47.1044L7.94345 48.8263C6.99219 49.3877 5.76508 49.0721 5.20368 48.1209C4.64238 47.1698 4.95821 45.9438 5.90907 45.3822C5.90889 45.3823 5.90924 45.3821 5.90907 45.3822L5.92211 45.3744C5.93438 45.3671 5.95465 45.3549 5.98265 45.3378C6.03866 45.3037 6.12557 45.2501 6.24122 45.1772C6.47255 45.0313 6.81869 44.8081 7.26233 44.5078C8.14986 43.9071 9.42604 42.9989 10.9528 41.786C14.0092 39.3579 18.0533 35.7214 21.9924 30.8994C25.8698 26.1529 28.6534 20.5906 30.4741 16.167C31.3807 13.9643 32.04 12.065 32.4713 10.7212C32.6868 10.0497 32.845 9.51817 32.9483 9.15819C33 8.97824 33.0379 8.84127 33.0624 8.75126C33.0747 8.70626 33.0836 8.673 33.0892 8.65199L33.095 8.62973L33.096 8.62621" fill="#00B2FF"/>
<path fill-rule="evenodd" clip-rule="evenodd" d="M15.4085 17.1491L15.4124 17.1567L15.4318 17.1939C15.4498 17.2283 15.4781 17.2819 15.5166 17.3539C15.5937 17.4978 15.7116 17.715 15.8701 17.9984C16.1872 18.5653 16.6663 19.3967 17.3053 20.4361C18.5838 22.5158 20.499 25.4234 23.0323 28.7097C25.5414 31.9648 27.9828 34.5076 29.7919 36.2322C30.6958 37.0938 31.4396 37.7491 31.9523 38.185C32.2086 38.4029 32.4069 38.5658 32.5383 38.672C32.6041 38.7251 32.653 38.7641 32.6841 38.7886L32.7173 38.8146L32.7227 38.8189C33.5969 39.4937 33.7592 40.7497 33.0847 41.6241C32.41 42.4987 31.1541 42.6607 30.2795 41.986L31.5011 40.4025C30.2795 41.986 30.2798 41.9863 30.2795 41.986L30.2765 41.9837L30.2716 41.9799L30.2566 41.9683L30.2058 41.9284C30.1628 41.8944 30.1018 41.8458 30.0238 41.7828C29.8678 41.6567 29.6439 41.4727 29.3614 41.2325C28.7963 40.7521 27.9956 40.0461 27.032 39.1275C25.1062 37.2917 22.5211 34.5986 19.8642 31.1517C17.2314 27.7362 15.2371 24.7097 13.8977 22.5309C13.2277 21.4411 12.7208 20.562 12.379 19.9509C12.2081 19.6452 12.0784 19.4065 11.9902 19.2417C11.9461 19.1593 11.9123 19.0954 11.889 19.0509L11.8618 18.9988L11.854 18.9838L11.8508 18.9775C11.8506 18.9772 11.8502 18.9763 13.6293 18.0627L11.8502 18.9763C11.3456 17.9938 11.7331 16.7882 12.7157 16.2836C13.698 15.7792 14.9036 16.1672 15.4085 17.1491Z" fill="#00B2FF"/>
</svg>
