<svg width="55" height="54" viewBox="0 0 55 54" fill="none" xmlns="http://www.w3.org/2000/svg">
<path d="M4.625 34.8574V38.6699H13.3671L0.8125 51.2245L3.50794 53.9199L16.0625 41.3654V50.1074H19.875V34.8574H4.625Z" fill="#00B2FF"/>
<path d="M50.375 19.6074H38.9375C37.9267 19.6064 36.9575 19.2044 36.2428 18.4897C35.528 17.7749 35.126 16.8057 35.125 15.7949V4.35742C35.126 3.34659 35.528 2.37746 36.2428 1.66269C36.9575 0.947928 37.9267 0.545931 38.9375 0.544922H50.375C51.3858 0.545931 52.355 0.947928 53.0697 1.66269C53.7845 2.37746 54.1865 3.34659 54.1875 4.35742V15.7949C54.1865 16.8057 53.7845 17.7749 53.0697 18.4897C52.355 19.2044 51.3858 19.6064 50.375 19.6074ZM38.9375 4.35742V15.7949H50.375V4.35742H38.9375Z" fill="#00B2FF"/>
<path d="M42.75 46.2949H27.5V42.4824H42.75V29.1387H12.25C11.2392 29.1377 10.27 28.7357 9.55527 28.0209C8.84051 27.3061 8.43851 26.337 8.4375 25.3262V11.9824C8.43851 10.9716 8.84051 10.0025 9.55527 9.28769C10.27 8.57293 11.2392 8.17093 12.25 8.16992H31.3125V11.9824H12.25V25.3262H42.75C43.7608 25.3272 44.73 25.7292 45.4447 26.4439C46.1595 27.1587 46.5615 28.1278 46.5625 29.1387V42.4824C46.5615 43.4933 46.1595 44.4624 45.4447 45.1772C44.73 45.8919 43.7608 46.2939 42.75 46.2949Z" fill="#00B2FF"/>
</svg>
