<svg width="30" height="30" viewBox="0 0 30 30" fill="none" xmlns="http://www.w3.org/2000/svg">
<path d="M23.2 9.19427V12.5492C23.2 13.35 22.5508 13.9992 21.75 13.9992H19.093V16.0082C19.0832 16.4453 18.6919 16.7898 18.2404 16.7241C17.8669 16.6698 17.6 16.3313 17.6 15.9538V13.0992C17.6 12.8822 17.6823 12.6873 17.8353 12.5333C17.9893 12.3803 18.197 12.2992 18.414 12.2992H20.3V11.4992H18.414C17.983 11.4992 17.578 11.6672 17.273 11.9722C16.969 12.2772 16.8 12.6682 16.8 13.0992V15.9363C16.8 16.7003 17.3345 17.3804 18.0876 17.5096C18.317 17.549 18.539 17.5351 18.745 17.4811L18.2131 19.0594L19.8131 21.3244C19.9391 21.5024 20.0146 21.6908 20.0566 21.9688L21.0042 27.6121C21.1267 28.3514 20.6233 29.049 19.883 29.1657C19.1517 29.2811 18.4639 28.7856 18.3417 28.0554L17.4229 22.628L14.1109 17.919C13.7 17.2992 13.7 16.5272 13.7 16.1992C13.7 16.1452 13.7 12.1992 13.7 12.1992L11.6687 15.9613C11.3807 16.4963 10.7134 16.6965 10.1784 16.4084C9.64364 16.1204 9.44344 15.4535 9.73114 14.9186L13.8792 7.19187C14.3614 6.32327 15.2759 5.75017 16.1609 5.75017H16.6839C17.8799 5.75017 18.6799 6.58217 18.9389 7.69917H18.3795C17.9271 7.69917 17.5316 8.04017 17.5018 8.49157C17.4692 8.98647 17.862 9.39917 18.35 9.39917H20.3V7.69917L21.8621 7.70007C22.6507 7.72777 23.2 8.40527 23.2 9.19427ZM24.183 9.35417H24V11.5542H24.183C24.791 11.5542 25.283 11.0622 25.283 10.4542C25.283 9.84717 24.791 9.35417 24.183 9.35417ZM13.4291 29.1102C14.1364 29.3511 14.9046 28.9705 15.1417 28.262L16.8351 23.1812L14.9084 20.4427L12.5854 27.4069C12.3502 28.1101 12.7272 28.8712 13.4291 29.1102ZM11.105 20.7262L10.348 20.4652L10.521 19.9662L7.30404 18.8992L7.14004 19.3742L6.38404 19.1132L6.54404 18.6482L5.53904 18.3142L4.64404 21.0132L11.447 23.2692L12.342 20.5702L11.28 20.2182L11.105 20.7262ZM6.34204 15.8932L5.79104 17.5552L12.594 19.8112L13.145 18.1492L6.34204 15.8932ZM14.3092 2.99297C14.3092 4.20797 15.2942 5.19297 16.5092 5.19297C17.7242 5.19297 18.7092 4.20797 18.7092 2.99297C18.7092 1.77797 17.7242 0.792969 16.5092 0.792969C15.2942 0.792969 14.3092 1.77797 14.3092 2.99297ZM21.6982 7.14827C22.7337 7.14827 23.5745 6.30597 23.5745 5.27037C23.5745 4.23377 22.7337 3.39437 21.6982 3.39437C20.6622 3.39437 19.8218 4.23407 19.8218 5.27037C19.8217 6.30587 20.6621 7.14827 21.6982 7.14827Z" fill="black"/>
</svg>
