<svg width="57" height="56" viewBox="0 0 57 56" fill="none" xmlns="http://www.w3.org/2000/svg">
<path d="M21.8281 0.591797C20.8369 0.591797 19.8075 0.934922 19.0831 1.6593C18.3588 2.38367 18.0156 3.41305 18.0156 4.4043V6.31055H0.859375V44.4355H22.2094C21.9616 43.2155 21.8281 41.9384 21.8281 40.623H4.67188V28.118C5.79656 28.7662 7.09281 29.1855 8.48438 29.1855H25.6597C26.7272 27.7368 28.0234 26.4405 29.4722 25.373H8.48438C6.21594 25.373 4.67188 23.829 4.67188 21.5605V10.123H46.6094V21.5605C46.6094 21.8655 46.5903 22.1515 46.5331 22.4184C47.9056 22.8377 49.2019 23.4096 50.4219 24.1149V6.31055H33.2656V4.4043C33.2656 3.41305 32.9225 2.38367 32.1981 1.6593C31.4738 0.934922 30.4444 0.591797 29.4531 0.591797H21.8281ZM21.8281 4.4043H29.4531V6.31055H21.8281V4.4043ZM12.2969 17.748V23.4668H16.1094V17.748H12.2969ZM35.1719 17.748V22.4374C36.4132 22.0495 37.6905 21.7876 38.9844 21.6559V17.748H35.1719ZM40.8906 25.373C32.4841 25.373 25.6406 32.2165 25.6406 40.623C25.6406 49.0296 32.4841 55.873 40.8906 55.873C49.2972 55.873 56.1406 49.0296 56.1406 40.623C56.1406 32.2165 49.2972 25.373 40.8906 25.373ZM40.8906 29.1855C47.2194 29.1855 52.3281 34.2943 52.3281 40.623C52.3281 46.9518 47.2194 52.0605 40.8906 52.0605C34.5619 52.0605 29.4531 46.9518 29.4531 40.623C29.4531 34.2943 34.5619 29.1855 40.8906 29.1855ZM38.9844 31.0918V42.5293H48.5156V38.7168H42.7969V31.0918H38.9844Z" fill="#00B2FF"/>
</svg>
