<svg width="30" height="31" viewBox="0 0 30 31" fill="none" xmlns="http://www.w3.org/2000/svg">
<path d="M13.75 23H16.25V28H13.75V23Z" fill="white"/>
<path d="M22.5 5.90039L15 2.90039L7.5 5.90039V10.5004H2.5V28.0004H11.25V20.5004H18.75V28.0004H27.5V10.5004H22.5V5.90039ZM8.75 23.0004H6.25V20.5004H8.75V23.0004ZM8.75 18.0004H6.25V15.5004H8.75V18.0004ZM13.75 18.0004H11.25V15.5004H13.75V18.0004ZM13.75 8.00039H16.25V13.0004H13.75V8.00039ZM18.75 18.0004H16.25V15.5004H18.75V18.0004ZM23.75 23.0004H21.25V20.5004H23.75V23.0004ZM23.75 15.5004V18.0004H21.25V15.5004H23.75Z" fill="white"/>
</svg>
