<svg width="30" height="37" viewBox="0 0 30 37" fill="none" xmlns="http://www.w3.org/2000/svg">
<mask id="path-1-inside-1_644_6449" fill="white">
<path fill-rule="evenodd" clip-rule="evenodd" d="M24.5061 27.4221C27.8601 24.6712 30 20.4947 30 15.8184C30 7.53409 23.2843 0.818359 15 0.818359C6.71573 0.818359 0 7.53409 0 15.8184C0 24.1026 6.71573 30.8184 15 30.8184C17.5706 30.8184 19.9901 30.1717 22.1049 29.0323L25.817 35.4619C26.2153 36.1518 27.0974 36.3881 27.7872 35.9898C28.4771 35.5916 28.7134 34.7095 28.3152 34.0196L24.5061 27.4221Z"/>
</mask>
<path d="M24.5061 27.4221L23.365 26.0308L22.1842 26.9993L22.9477 28.3218L24.5061 27.4221ZM22.1049 29.0323L23.6632 28.1326L22.7896 26.6194L21.2513 27.4482L22.1049 29.0323ZM25.817 35.4619L27.3754 34.5622L27.3754 34.5622L25.817 35.4619ZM27.7872 35.9898L26.8875 34.4315L26.8875 34.4315L27.7872 35.9898ZM28.3152 34.0196L26.7568 34.9193L28.3152 34.0196ZM28.2006 15.8184C28.2006 19.933 26.3201 23.607 23.365 26.0308L25.6472 28.8134C29.4001 25.7354 31.7994 21.0564 31.7994 15.8184H28.2006ZM15 2.61779C22.2905 2.61779 28.2006 8.52789 28.2006 15.8184H31.7994C31.7994 6.54029 24.2781 -0.981072 15 -0.981072V2.61779ZM1.79943 15.8184C1.79943 8.52789 7.70953 2.61779 15 2.61779V-0.981072C5.72193 -0.981072 -1.79943 6.54029 -1.79943 15.8184H1.79943ZM15 29.0189C7.70953 29.0189 1.79943 23.1088 1.79943 15.8184H-1.79943C-1.79943 25.0964 5.72193 32.6178 15 32.6178V29.0189ZM21.2513 27.4482C19.3924 28.4498 17.2653 29.0189 15 29.0189V32.6178C17.8758 32.6178 20.5878 31.8937 22.9584 30.6164L21.2513 27.4482ZM27.3754 34.5622L23.6632 28.1326L20.5465 29.932L24.2587 36.3616L27.3754 34.5622ZM26.8875 34.4315C27.0583 34.3329 27.2767 34.3914 27.3754 34.5622L24.2586 36.3616C25.1538 37.9121 27.1365 38.4434 28.687 37.5482L26.8875 34.4315ZM26.7568 34.9193C26.6582 34.7485 26.7167 34.5301 26.8875 34.4315L28.6869 37.5482C30.2375 36.653 30.7687 34.6704 29.8735 33.1199L26.7568 34.9193ZM22.9477 28.3218L26.7568 34.9193L29.8735 33.1199L26.0644 26.5224L22.9477 28.3218Z" fill="black" mask="url(#path-1-inside-1_644_6449)"/>
</svg>
