<svg width="30" height="30" viewBox="0 0 30 30" fill="none" xmlns="http://www.w3.org/2000/svg">
<path d="M13.75 22.5H16.25V27.5H13.75V22.5Z" fill="black"/>
<path d="M22.5 5.40039L15 2.40039L7.5 5.40039V10.0004H2.5V27.5004H11.25V20.0004H18.75V27.5004H27.5V10.0004H22.5V5.40039ZM8.75 22.5004H6.25V20.0004H8.75V22.5004ZM8.75 17.5004H6.25V15.0004H8.75V17.5004ZM13.75 17.5004H11.25V15.0004H13.75V17.5004ZM13.75 7.50039H16.25V12.5004H13.75V7.50039ZM18.75 17.5004H16.25V15.0004H18.75V17.5004ZM23.75 22.5004H21.25V20.0004H23.75V22.5004ZM23.75 15.0004V17.5004H21.25V15.0004H23.75Z" fill="black"/>
</svg>
