<svg width="30" height="30" viewBox="0 0 30 30" fill="none" xmlns="http://www.w3.org/2000/svg">
<path fill-rule="evenodd" clip-rule="evenodd" d="M8.3456 5.82746C10.4785 4.17301 13.1022 3.27706 15.8015 3.28126C22.5328 3.28126 27.989 8.73751 27.989 15.4688C27.989 22.2 22.5328 27.6563 15.8015 27.6563C9.07026 27.6563 3.61401 22.2 3.61401 15.4688C3.61401 13.9697 3.8859 12.5343 4.37997 11.2078" fill="#295CB8"/>
<path d="M8.3456 5.82746C10.4785 4.17301 13.1022 3.27706 15.8015 3.28126C22.5328 3.28126 27.989 8.73751 27.989 15.4688C27.989 22.2 22.5328 27.6563 15.8015 27.6563C9.07026 27.6563 3.61401 22.2 3.61401 15.4688C3.61401 13.9697 3.8859 12.5343 4.37997 11.2078" stroke="white"/>
<path d="M8.3456 5.82745C10.4785 4.173 13.1022 3.27705 15.8015 3.28125C22.5328 3.28125 27.989 8.7375 27.989 15.4688C27.989 22.2 22.5328 27.6562 15.8015 27.6562C9.07026 27.6562 3.61401 22.2 3.61401 15.4688C3.61401 13.9697 3.8859 12.5343 4.37997 11.2078M15.8015 3.04688V27.6272M28.0481 15.4688H3.67309M19.4878 8.90625H8.15529M26.0896 22.0312H5.57716" stroke="white"/>
<path d="M14.5912 27.6627C11.3503 24.9402 9.23901 20.4937 9.23901 15.4696C9.23901 10.4615 11.3371 6.02711 14.5612 3.30273M16.995 27.6712C20.3034 24.1275 22.3125 19.3621 22.3725 15.4696M20.4168 7.50363C19.5421 5.87332 18.4059 4.45401 17.0784 3.32619" stroke="white"/>
<path d="M8.63531 7.39128C8.63531 9.14347 5.48904 12.6562 5.48904 12.6562C5.48904 12.6562 2.34375 9.14347 2.34375 7.39128C2.34375 5.63909 3.75186 4.21875 5.48904 4.21875C7.22717 4.21875 8.63531 5.63909 8.63531 7.39128Z" fill="#E9EDED" stroke="#F05542" stroke-linecap="round" stroke-linejoin="round"/>
<path d="M5.48903 8.09545C6.06789 8.09545 6.53716 7.62194 6.53716 7.0379C6.53716 6.45386 6.06789 5.98047 5.48903 5.98047C4.91016 5.98047 4.44092 6.45386 4.44092 7.0379C4.44092 7.62194 4.91016 8.09545 5.48903 8.09545Z" fill="#295CB8" stroke="#F05542" stroke-linecap="round" stroke-linejoin="round"/>
<path d="M25.5103 10.2038C25.5103 11.956 22.364 15.4688 22.364 15.4688C22.364 15.4688 19.2188 11.956 19.2188 10.2038C19.2188 8.45159 20.6269 7.03125 22.364 7.03125C24.1022 7.03125 25.5103 8.45159 25.5103 10.2038Z" fill="#E9EDED" stroke="#F05542" stroke-linecap="round" stroke-linejoin="round"/>
<path d="M22.364 10.908C22.9429 10.908 23.4122 10.4344 23.4122 9.8504C23.4122 9.26636 22.9429 8.79297 22.364 8.79297C21.7852 8.79297 21.3159 9.26636 21.3159 9.8504C21.3159 10.4344 21.7852 10.908 22.364 10.908Z" fill="#295CB8" stroke="#F05542" stroke-linecap="round" stroke-linejoin="round"/>
</svg>
