<?xml version="1.0" encoding="utf-8"?>
<!-- Generator: Adobe Illustrator 28.2.0, SVG Export Plug-In . SVG Version: 6.00 Build 0)  -->
<svg version="1.1" id="Layer_1" xmlns="http://www.w3.org/2000/svg" xmlns:xlink="http://www.w3.org/1999/xlink" x="0px" y="0px"
	 viewBox="0 0 300 300" style="enable-background:new 0 0 300 300;" xml:space="preserve">
<style type="text/css">
	.st0{fill:url(#SVGID_1_);}
</style>
<linearGradient id="SVGID_1_" gradientUnits="userSpaceOnUse" x1="15.1861" y1="150" x2="284.8139" y2="150">
	<stop  offset="0" style="stop-color:#78A5E6"/>
	<stop  offset="0.5205" style="stop-color:#6859B5"/>
	<stop  offset="1" style="stop-color:#A81486"/>
</linearGradient>
<path class="st0" d="M151.6,284.7c-1,0-2.1,0-3.1,0c-0.2-0.2-0.3-0.3-0.5-0.5c-13-7.2-25.9-14.5-38.9-21.7c-2-1.1-3.1-2.7-3.1-5.1
	c0-14.7,0-29.3,0-44c0-2.4,1-4.2,3.2-5.3c4.5-2.5,9.1-5,13.6-7.6c0.4-0.2,0.8-0.5,1.3-0.8c-0.5-0.4-0.8-0.7-1.1-0.9
	c-8.4-6-16.8-12-25.2-18c-0.9-0.6-1.5-0.6-2.4-0.1c-11,6.1-21.9,12.2-32.9,18.4c-2.1,1.2-4,1.2-6.2,0c-12.1-6.9-24.3-13.7-36.5-20.5
	c-1.8-1-3.5-2-4.4-4c0-15.8,0-31.6,0-47.5c0.7-1.6,1.7-2.8,3.2-3.7c12.7-7,25.4-14.1,38-21.2c1.9-1.1,3.6-1.1,5.5-0.1
	c4.4,2.5,8.9,5,13.3,7.5c0.8,0.5,1.4,0.5,2.2-0.1c9.1-6.9,18.3-13.8,27.4-20.6c0.7-0.6,1.1-1.2,1.1-2.1c0-14.7,0-29.3,0-44
	c0-2.4,0.9-4.2,3.1-5.4c8.4-4.7,16.8-9.3,25.2-14c4.8-2.7,9.5-5.4,14.3-8c1,0,1.9,0,2.9,0c0.5,0.3,1.1,0.6,1.6,0.9
	c12.6,7,25.2,14.1,37.8,21.1c2.2,1.2,3.3,3,3.3,5.5c0,14.6,0,29.2,0,43.7c0,1.2,0.3,1.9,1.3,2.6c9.1,6.8,18.1,13.6,27.2,20.4
	c0.8,0.6,1.5,0.6,2.3,0.1c4.3-2.4,8.6-4.8,12.8-7.2c2.1-1.2,4.1-1.3,6.2-0.1c12.6,7.1,25.2,14.1,37.9,21.2c2.3,1.3,3.3,3.2,3.3,5.6
	c0,14.5,0,29,0,43.4c0,2.4-0.9,4.1-3.1,5.3c-6,3.3-11.9,6.6-17.8,9.9c-6.6,3.7-13.3,7.4-19.9,11.2c-2,1.1-4,1.3-6.1,0.1
	c-10.7-6-21.4-12-32.1-18c-1-0.5-1.6-0.5-2.4,0.2c-7.5,5.9-15,11.7-22.6,17.5c-0.8,0.6-1.5,1.2-2.5,2c0.6,0.4,0.9,0.6,1.3,0.9
	c3.6,2,7.2,4.1,10.8,6c2.5,1.3,3.6,3.3,3.6,6.1c-0.1,14.3-0.1,28.6,0,42.9c0,2.8-1,4.6-3.4,5.9c-10,5.5-20,11.2-30,16.8
	C157.6,281.2,154.6,282.9,151.6,284.7z M214.4,115.3c-0.6-0.5-1-0.9-1.4-1.2c-7.4-5.6-14.8-11.2-22.3-16.8c-1.4-1-2.8-2.7-4.3-2.8
	c-1.5-0.1-3.1,1.4-4.6,2.3c-9.7,5.4-19.4,10.8-29,16.2c-2,1.1-3.8,1.2-5.8,0c-1-0.7-2.2-1.2-3.2-1.8c-9.7-5.4-19.4-10.9-29.2-16.3
	c-0.8-0.4-1.4-0.8-2.3-0.1c-8.4,6.4-16.9,12.7-25.3,19.1c-0.5,0.4-0.9,0.8-1.5,1.3c0.6,0.4,1,0.7,1.5,0.9c4.2,2.3,8.3,4.8,12.6,7
	c2.6,1.4,3.7,3.4,3.7,6.3c0,14.1,0,28.1,0,42.2c0,1.2,0.4,2,1.4,2.7c9.1,6.4,18.2,12.9,27.2,19.4c1,0.7,1.7,0.7,2.7,0.2
	c4.1-2.3,8.3-4.6,12.3-6.9c2.1-1.3,4.1-1.2,6.2,0c5,2.9,10.1,5.6,15.1,8.4c0.9,0.5,1.5,0.4,2.3-0.2c7.8-6.1,15.7-12.3,23.6-18.3
	c1.9-1.5,2.8-2.8,2.7-5.4c-0.2-13.2,0.1-26.4-0.2-39.6c-0.1-4.9,1.3-8,5.9-10C206.4,120.2,210.2,117.7,214.4,115.3z M184.5,50
	c-0.5,0.2-0.9,0.3-1.2,0.5c-9.3,5.2-18.5,10.3-27.8,15.5c-0.8,0.5-1.1,1-1.1,1.9c0,10.6,0,21.2,0,31.9c0,0.4,0.1,0.9,0.1,1.6
	c8-4.4,15.7-8.7,23.7-13.2c-0.7-0.5-1.1-1-1.6-1.3c-3.2-2.4-6.5-4.8-9.7-7.3c-2-1.5-2.6-3.7-1.8-5.7c1.3-2.9,4.4-3.8,7.1-1.9
	c3.6,2.5,7,5.2,10.5,7.8c0.4,0.3,0.9,0.6,1.6,1.1C184.5,70.5,184.5,60.4,184.5,50z M145.1,101.4c0-0.8,0.1-1.3,0.1-1.7
	c0-10.5,0-21,0-31.6c0-1.1-0.4-1.7-1.3-2.2c-9.1-5-18.1-10.1-27.2-15.1c-0.4-0.2-0.9-0.4-1.5-0.7c0,10.4,0,20.6,0,31
	c0.7-0.5,1.1-0.8,1.5-1.1c3.5-2.6,7-5.3,10.5-7.9c2.7-2,5.9-1.1,7.1,1.8c0.9,2,0.3,4.2-1.8,5.8c-3.3,2.5-6.6,4.9-9.8,7.4
	c-0.4,0.3-0.8,0.6-1.4,1.1C129.3,92.6,137.1,96.9,145.1,101.4z M205.9,167.3c0.6-0.4,1.1-0.6,1.4-0.9c3.4-2.6,6.9-5.3,10.3-8
	c1.3-1,2.6-1.6,4.3-1.1c1.7,0.5,3,1.5,3.4,3.3c0.5,1.9,0,3.6-1.6,4.9c-3.3,2.6-6.7,5.2-10,7.8c-0.4,0.3-0.7,0.7-1.3,1.2
	c7.9,4.4,15.5,8.7,23.4,13.1c0.1-0.9,0.1-1.5,0.1-2c0-10.3,0-20.6,0-30.9c0-1.4-0.4-2.1-1.6-2.8c-9-4.9-17.9-9.9-26.8-14.9
	c-0.4-0.2-0.9-0.4-1.6-0.7C205.9,146.6,205.9,156.8,205.9,167.3z M93.8,166.5c0-10.3,0-20.2,0-30.3c-0.7,0.3-1.1,0.5-1.6,0.7
	c-9,5-17.9,10-26.9,15c-1,0.6-1.5,1.2-1.5,2.4c0,10.4,0,20.9,0,31.3c0,0.5,0.1,1,0.1,1.8c8.1-4.5,16-8.9,24.1-13.5
	c-1-0.8-1.8-1.3-2.5-1.9c-3.1-2.2-6.3-4.4-9.3-6.6c-2.7-2-2.8-5.5-0.4-7.5c1.7-1.4,3.7-1.4,5.7-0.1c3.6,2.5,7.2,5.1,10.7,7.6
	C92.7,165.8,93.1,166.1,93.8,166.5z M54.4,187.5c0-0.9,0.1-1.5,0.1-2c0-10.3,0-20.6,0-30.9c0-1.4-0.5-2.1-1.7-2.8
	c-7.9-4.4-15.8-8.8-23.7-13.2c-1.5-0.8-3-1.7-4.7-2.6c-0.1,0.5-0.1,0.8-0.1,1.1c0,10.9,0,21.7,0,32.6c0,0.6,0.5,1.3,1,1.6
	c2.7,1.6,5.5,3.1,8.2,4.6c0.3,0.1,0.6,0.2,0.9,0.3c0.1-0.3,0.2-0.4,0.2-0.6c0-2.5,0-5.1,0-7.6c0-0.5-0.4-1.1-0.7-1.5
	c-1.2-1.4-1.9-3-1.9-4.8c0-3.3,2.3-6,5.7-6.9c2.8-0.8,6.1,0.6,7.8,3.3c1.7,2.6,1.3,5.8-0.7,8.4c-0.4,0.5-0.7,1.3-0.7,2
	c-0.1,3.2,0.2,6.4-0.1,9.6c-0.3,2.8,0.7,4.4,3.2,5.5C49.6,184.6,51.8,186,54.4,187.5z M275.3,136.1c-0.7,0.3-1.1,0.5-1.4,0.7
	c-9.1,5.1-18.3,10.2-27.4,15.3c-1,0.5-1.3,1.2-1.3,2.3c0,10.5,0,21,0,31.4c0,0.5,0.1,1,0.1,1.5c0.4-0.1,0.6-0.1,0.8-0.2
	c9.5-5.3,19-10.6,28.4-15.9c0.4-0.2,0.8-0.8,0.8-1.2c0.1-3.4,0-6.8,0-10.1c0-0.2-0.2-0.3-0.3-0.6c-2,1.1-4,2.1-6,3.1
	c-1.1,0.5-1.9,1.3-2.4,2.5c-1.6,3.7-6.1,5.3-9.7,3.4c-3.3-1.7-4.8-5.3-3.6-8.9c1.1-3.4,4.6-5.5,8.4-4.7c1.1,0.2,2,0.1,3-0.5
	c2.8-1.5,5.5-3,8.4-4.3c1.7-0.8,2.4-1.8,2.3-3.8C275.1,142.8,275.3,139.6,275.3,136.1z M125.4,261.1c0.1-0.7,0.1-1.1,0.1-1.6
	c0-2,0-4,0-6c0-1-0.2-1.8-0.9-2.6c-2-2.4-2.3-5.1-1-7.9c1.3-2.8,3.7-4.2,6.8-4.1c3,0.1,5.2,1.6,6.4,4.3c1.3,2.8,0.8,5.5-1.1,7.9
	c-0.4,0.5-0.8,1.2-0.8,1.8c-0.1,4.1,0,8.2-0.1,12.3c0,0.9,0.4,1.4,1.1,1.8c2.8,1.5,5.5,3,8.2,4.6c0.3,0.1,0.6,0.2,1,0.4
	c0-0.6,0.1-1,0.1-1.4c0-10.6,0-21.2,0-31.7c0-1.1-0.3-1.7-1.3-2.3c-9.1-5-18.2-10.1-27.3-15.2c-0.4-0.2-0.8-0.4-1.4-0.7
	c0,0.8-0.1,1.3-0.1,1.8c0,9.6,0.1,19.2-0.1,28.7c-0.1,3.1,0.7,4.9,3.6,6.1C120.9,258.3,123,259.7,125.4,261.1z M184.6,243.3
	c-2.5,1.4-4.7,2.5-6.8,3.8c-0.6,0.4-1.2,1.1-1.5,1.7c-1.6,3.8-5.4,5.7-9.2,4.4c-3.5-1.1-5.7-5.1-4.8-8.5c1.1-4.1,4.7-6.3,8.9-5.4
	c0.6,0.1,1.4,0,1.9-0.2c3.5-1.9,7-3.9,10.5-5.8c0.8-0.4,1.1-1,1.1-1.9c0-3.1,0-6.2,0-9.3c0-0.4-0.1-0.7-0.2-1.2
	c-0.4,0.2-0.7,0.2-1,0.4c-9.3,5.2-18.6,10.4-27.9,15.6c-0.8,0.4-1.1,0.9-1,1.8c0,10.8,0,21.5,0,32.3c0,0.3,0.1,0.7,0.2,1
	c0.3,0,0.4,0,0.4,0c9.5-5.3,19-10.6,28.5-16c0.5-0.3,1-1.2,1-1.8c0.1-2,0-4.1,0-6.1C184.6,246.5,184.6,245.1,184.6,243.3z
	 M250,139.1c-3.5-1.1-5.4-4.5-9.5-3.9c-3.4,0.5-6.6-2.9-7-6.4c-0.3-3.6,2.1-7.1,5.5-7.8c3.6-0.7,7,1.3,8.3,4.7
	c0.3,0.8,0.9,1.6,1.6,2c3.1,2,6.2,3.8,9.3,5.8c0.9,0.5,1.5,0.5,2.4,0c2.7-1.6,5.5-3.1,8.2-4.6c0.4-0.2,0.7-0.5,1.3-0.8
	c-0.5-0.4-0.8-0.6-1.1-0.8c-9.1-5.1-18.3-10.2-27.4-15.3c-0.5-0.3-1.5-0.3-2.1,0c-9.2,5-18.3,10.1-27.4,15.3
	c-0.4,0.2-0.7,0.5-1.1,0.8c0.3,0.2,0.4,0.3,0.5,0.4c9.4,5.2,18.8,10.5,28.2,15.7c0.5,0.3,1.3,0.2,1.8,0c2.5-1.3,4.9-2.7,7.4-4.1
	C249.2,139.9,249.4,139.6,250,139.1z M179.5,212.6c-0.4-0.3-0.5-0.4-0.6-0.5c-9.3-5.2-18.7-10.5-28.1-15.6c-0.5-0.3-1.5-0.2-2.1,0.1
	c-9,5-18.1,10-27.1,15.1c-0.4,0.2-0.8,0.5-1.4,0.9c0.4,0.3,0.7,0.6,0.9,0.7c9.2,5.2,18.4,10.3,27.7,15.4c0.4,0.2,1.1,0.4,1.5,0.2
	c2.8-1.5,5.5-3.1,8.2-4.6c0.1-0.1,0.1-0.2,0.2-0.5c-1.9-1.2-3.7-2.4-5.7-3.6c-0.6-0.4-1.5-0.4-2.3-0.5c-1.3-0.2-2.8,0-4-0.5
	c-3.3-1.2-5-4.6-4.4-8c0.6-3.3,3.4-5.7,6.8-6c3.4-0.3,6.5,1.9,7.6,5.2c0.2,0.7,0.8,1.4,1.4,1.8c3,2,6.1,3.9,9.1,5.9
	c0.8,0.6,1.5,0.6,2.3,0.1c2.8-1.6,5.7-3.2,8.6-4.8C178.5,213.3,178.9,213,179.5,212.6z M88.8,128.1c-0.5-0.4-0.9-0.6-1.2-0.8
	c-9.1-5.1-18.3-10.2-27.4-15.3c-0.5-0.3-1.5-0.2-2.1,0c-2.3,1.2-4.6,2.5-6.9,3.8c-0.4,0.2-0.7,0.5-1.3,0.9c2.1,1.3,3.9,2.6,5.8,3.7
	c0.7,0.4,1.6,0.4,2.4,0.5c1.5,0.2,3.1,0,4.4,0.6c3.2,1.3,4.8,4.7,4.2,8.1c-0.6,3.2-3.6,5.7-6.9,5.8c-3.4,0.1-6.5-2.1-7.5-5.2
	c-0.2-0.6-0.6-1.3-1.2-1.6c-3.1-2.1-6.3-4.1-9.5-6c-0.5-0.3-1.5-0.4-2-0.1c-3,1.6-6,3.3-9,5c-0.3,0.2-0.5,0.4-0.9,0.8
	c0.6,0.4,1,0.6,1.4,0.9c8.9,4.9,17.7,9.8,26.5,14.8c1.3,0.7,2.1,0.7,3.4,0c7.4-4.2,14.9-8.3,22.3-12.5
	C85,130.3,86.8,129.2,88.8,128.1z M179.4,41.9c-0.4-0.3-0.6-0.5-0.9-0.6c-9.2-5.1-18.4-10.3-27.5-15.4c-0.8-0.5-1.4-0.4-2.2,0
	c-6.6,3.7-13.2,7.4-19.8,11.1c-2.8,1.6-5.6,3.2-8.7,4.9c0.6,0.4,0.9,0.7,1.3,0.9c9.1,5.1,18.2,10.2,27.3,15.2c0.5,0.3,1.5,0.3,2.1,0
	c2.6-1.3,5.2-2.8,7.7-4.3c0.3-0.2,0.7-0.5,1.2-0.9c-1.9-1.1-3.7-2-5.3-3c-1.2-0.8-2.4-1-3.9-0.8c-4.2,0.6-8-2.3-8.3-6.4
	c-0.3-3.7,1.9-6.9,5.5-7.8c3.7-0.9,7.2,0.8,8.6,4.3c0.4,1,1,1.6,1.9,2.1c3.4,1.9,6.7,3.8,10.1,5.6c0.6,0.3,1.5,0.3,2.1,0
	c2.7-1.4,5.3-2.9,8-4.4C178.8,42.4,179,42.2,179.4,41.9z"/>
</svg>
