<?xml version="1.0" encoding="utf-8"?>
<!-- Generator: Adobe Illustrator 28.2.0, SVG Export Plug-In . SVG Version: 6.00 Build 0)  -->
<svg version="1.1" id="Layer_1" xmlns="http://www.w3.org/2000/svg" xmlns:xlink="http://www.w3.org/1999/xlink" x="0px" y="0px"
	 viewBox="0 0 300 300" style="enable-background:new 0 0 300 300;" xml:space="preserve">
<style type="text/css">
	.st0{fill:url(#SVGID_1_);}
</style>
<g>
	<linearGradient id="SVGID_1_" gradientUnits="userSpaceOnUse" x1="62.6271" y1="200.288" x2="273.8797" y2="78.3213">
		<stop  offset="0" style="stop-color:#00426E"/>
		<stop  offset="1" style="stop-color:#C400FF"/>
	</linearGradient>
	<path class="st0" d="M150.3,32.8c7.5,4.4,15.1,8.8,22.5,13.1c2.9,1.7,5.8,3.3,8.7,5l5.8,3.3c7.8,4.5,15.6,9,23.3,13.5
		c3.9,2.2,7.8,4.5,11.7,6.7c5.1,2.9,10.3,5.9,15.5,8.9c7.6,4.4,15.2,8.8,22.8,13.3c1.6,0.9,3.2,1.8,4.8,2.8
		c-0.5,0.3-0.9,0.5-1.4,0.8l-3,1.8c-3.3,1.9-6.6,3.8-10,5.8c-4.1,2.4-8.2,4.7-12.3,7.1c-5,2.9-10.2,6-15.5,9.1
		c-5.5-3.2-11-6.3-16.3-9.4c-3.3-1.9-6.5-3.8-9.8-5.6c-3.1-1.8-6.3-3.6-9.4-5.4c-8.9-5.1-18-10.4-26.9-15.7
		c-3.8-2.3-7.4-3.4-11.1-3.4c-3.8,0-7.4,1.1-11.1,3.4c-6.3,3.9-13,7.7-19.4,11.4c-2.6,1.5-5.2,3-7.8,4.5l-4.6,2.7
		c-6.1,3.5-12.4,7.2-18.6,10.8c-2.9,1.7-5.7,3.3-8.6,4.9c-1,0.5-1.9,1.1-2.9,1.6c-1.1-0.7-2.3-1.3-3.4-2l-3.3-1.9l-5.2-3
		c-4.1-2.4-8.2-4.8-12.4-7.2c-5.2-3-10.4-6.1-15.7-9.1l-1.8-1.1c0.3-0.2,0.6-0.4,0.9-0.5c4.7-2.8,9.6-5.5,14.3-8.2l3.7-2.1
		c2.8-1.6,5.7-3.3,8.6-4.9c3.7-2.1,7.4-4.2,11.1-6.3c6.8-3.9,13.4-7.7,19.7-11.4c3.2-1.8,6.4-3.7,9.5-5.5c4.3-2.5,8.6-5,12.9-7.5
		c3-1.8,6.1-3.5,9.1-5.2c3.1-1.8,6.2-3.6,9.4-5.4c1.1-0.7,2.3-1.3,3.4-2C141.6,37.8,146,35.3,150.3,32.8 M168.8,135.9
		c5.8,3.4,11.6,6.7,17.2,10c2.1,1.2,4.2,2.4,6.2,3.6c-1.9,1.1-3.7,2.1-5.6,3.2c-3.5,2-7,4-10.5,6.1c-2.5,1.4-5,2.9-7.5,4.3l0-1.4h0
		v-12c0-2.5,0-5.1,0-7.6C168.8,140,168.8,137.9,168.8,135.9 M130.9,135.9c0,0.3,0,0.7,0,1l0,6.9l0,5.8l0,7c0,2.1,0,4.2,0,6.3
		c-3-1.7-6.1-3.5-9.1-5.2c-3.7-2.1-7.3-4.2-11-6.3c-1.1-0.6-2.2-1.3-3.3-1.9c2-1.2,4.1-2.3,6.1-3.5
		C119.4,142.6,125.2,139.3,130.9,135.9 M211.3,182.2c0,1.2,0,2.4,0,3.5l0,6.7l0,2.4l0,1l0,8.5c0,1.7,0,3.4,0,5.2
		c-7.6-4.4-15.4-8.9-23.7-13.7l4.8-2.8C198.7,189.4,205,185.8,211.3,182.2 M88.5,182.4c1.6,0.9,3.2,1.9,4.9,2.8l6,3.5
		c4.1,2.4,8.2,4.7,12.3,7.1c-3.1,1.8-6.1,3.5-9.2,5.3c-4.7,2.7-9.4,5.4-14,8.1c0-0.4,0-0.9,0-1.3h0v-12l0-7.7L88.5,182.4
		 M168.7,228.5c2.1,1.2,4.2,2.4,6.2,3.6l6.4,3.7c3.7,2.1,7.5,4.3,11.2,6.5c-0.7,0.4-1.4,0.8-2.1,1.2c-1.6,0.9-3.2,1.8-4.8,2.8
		c-2.6,1.5-5.3,3.1-7.9,4.6c-0.3-7.2-3.5-14.1-8.9-19.1C168.7,230.7,168.7,229.6,168.7,228.5 M131,228.7c0,1,0,2,0,3
		c-5.5,5.1-8.6,11.6-8.9,19.1l-1.3-0.8c-2.4-1.4-4.8-2.8-7.2-4.2c-2-1.2-4-2.3-6.1-3.5c0.1,0,0.1-0.1,0.2-0.1c5.2-3,10.5-6,15.7-9.1
		C125.9,231.7,128.4,230.2,131,228.7 M150.1,19.9c-1.2,0-2.5,0.4-3.9,1.2c-6,3.7-12.1,7.2-18.3,10.7c-6.2,3.6-12.4,7-18.5,10.6
		c-7.5,4.3-15,8.7-22.4,13c-6.6,3.8-13.1,7.6-19.7,11.4c-6.5,3.8-13.1,7.5-19.6,11.2c-6,3.5-12.1,6.9-18.1,10.4
		c-4.4,2.6-8.8,5.2-13.3,7.8c-1.2,0.7-1.9,1.6-1.9,3.1c-0.1,1.5,0.9,2.5,2.1,3.2c1.7,1.1,3.6,2.1,5.3,3.1
		c8.1,4.7,16.2,9.5,24.3,14.2c5.9,3.4,11.7,6.8,17.6,10.2c3.7,2.1,7.4,4.2,11,6.4c0.6,0.3,1.1,0.5,1.7,0.5c0.5,0,1.1-0.2,1.7-0.5
		c5.3-3,10.6-6,15.9-9c7.8-4.5,15.5-9,23.3-13.5c9.2-5.3,18.5-10.5,27.5-16.1c1.7-1.1,3.2-1.6,4.7-1.6c1.6,0,3.1,0.6,4.9,1.7
		c12.1,7.3,24.3,14.2,36.5,21.2c9.8,5.6,19.5,11.2,29.3,16.9c1,0.6,1.9,0.9,2.8,0.9c0.9,0,1.8-0.3,2.8-0.8c6.2-3.7,12.5-7.4,18.7-11
		c7.4-4.3,14.8-8.6,22.3-12.9c5.4-3.1,10.9-6.3,16.2-9.5c3.1-1.9,3.1-5.1,0-7c-1.6-1-3.3-1.9-4.9-2.8c-11.5-6.7-23-13.4-34.4-20
		c-9.1-5.2-18.1-10.4-27.2-15.6c-9.7-5.6-19.4-11.2-29.1-16.8c-10.9-6.3-21.9-12.5-32.7-19C153.1,20.5,151.6,19.9,150.1,19.9
		L150.1,19.9z M161.1,118.2c-2.5,0-4.5,2.1-4.4,5c0.2,8.8,0.1,17.6,0.1,26.5c0,0,0,0,0,0c0,8.9,0,17.8,0,26.6c0,2.2,1,3.6,3.1,4.3
		c0.4,0.1,0.8,0.2,1.2,0.2c1.3,0,2.4-0.7,3.5-1.3c5.9-3.4,11.8-6.9,17.7-10.3c9.2-5.3,18.3-10.6,27.5-15.9c1.7-1,2.8-2.4,2.5-4.5
		c-0.3-1.9-1.8-2.7-3.2-3.6c-2.4-1.4-4.9-2.8-7.3-4.2c-12.6-7.3-25.3-14.5-37.9-22C162.8,118.4,161.9,118.2,161.1,118.2L161.1,118.2
		z M138.7,118.2c-0.7,0-1.4,0.2-2,0.6c-1.5,0.8-3,1.8-4.5,2.6c-8.2,4.7-16.3,9.4-24.5,14.1c-5.8,3.3-11.6,6.6-17.4,10
		c-3.5,2.1-3.8,5.6-0.6,7.5c5,2.9,10,5.8,15.1,8.7c10.3,5.9,20.5,11.8,30.8,17.7c1,0.6,2.1,1.1,3.2,1.1c0.6,0,1.3-0.2,2-0.6
		c1.6-1.1,2.2-2.7,2.2-4.6c0-8.6,0-17.2,0-25.8c0-4.2,0-8.4,0-12.6c0-4.6,0-9.1,0-13.7C142.9,120.2,141,118.2,138.7,118.2
		L138.7,118.2z M219.2,164.5c-0.6,0-1.2,0.1-1.8,0.5c-4,2.1-7.8,4.4-11.7,6.6c-8.2,4.7-16.3,9.4-24.5,14.1
		c-3.6,2.1-7.2,4.1-10.7,6.2c-3.6,2.1-3.6,5.7,0,7.9c3.5,2.1,7.1,4.2,10.7,6.3c11.7,6.8,23.5,13.6,35.2,20.3
		c0.9,0.5,1.8,0.9,2.8,0.9c0.7,0,1.4-0.2,2.1-0.6c1.6-1,2-2.4,2-4.2c-0.1-8.8,0-17.6,0-26.5c0,0,0,0,0,0c0-1.2,0-2.3,0-3.5
		c0-7.9,0-15.8,0-23.7C223.2,166.3,221.3,164.5,219.2,164.5L219.2,164.5z M80.3,164.7c-2.2,0-3.8,1.8-3.8,4.7c0,8.8,0,17.6,0,26.5
		c0,0,0,0,0,0c0,8.9,0,17.9,0,26.8c0,0.8,0.1,1.8,0.6,2.4c1,1.3,2,2,3.3,2c0.9,0,1.9-0.3,3-1c2.9-1.7,5.8-3.5,8.8-5.2
		c12.4-7.2,24.8-14.3,37.2-21.5c3.1-1.8,3.1-5.4,0-7.2c-3-1.8-6.1-3.6-9.2-5.4c-6.9-4-13.8-8-20.8-12c-5.5-3.2-10.9-6.4-16.4-9.4
		C82,164.9,81.1,164.7,80.3,164.7L80.3,164.7z M142.2,208.5c-0.2,0-0.5,0.1-0.9,0.3c-8,4.7-16,9.3-24,14
		c-9.1,5.3-18.2,10.5-27.3,15.8c-3.3,1.9-3.4,5.5-0.2,7.4c8.3,4.9,16.6,9.7,24.9,14.5c10.8,6.3,21.6,12.5,32.3,18.8
		c1,0.6,1.9,0.9,2.9,0.9c1,0,2-0.3,2.9-1c0.4-0.3,0.8-0.5,1.2-0.7c6.8-3.9,13.5-7.8,20.3-11.7c5.8-3.3,11.5-6.7,17.3-10
		c6.1-3.5,12.3-7,18.3-10.7c3.4-2,3.3-5.5-0.1-7.5c-9.6-5.6-19.3-11.2-28.9-16.8c-7.4-4.3-14.8-8.6-22.3-12.8
		c-0.3-0.2-0.8-0.3-1.1-0.3c-0.1,0-0.2,0-0.3,0.1c-0.4,0.3-0.5,1-0.5,1.5c0,8.6,0,17.3,0,25.9c0,1.3,0.4,2.1,1.5,2.8
		c6.4,4,9.3,12.1,6.1,19.6c-2.5,5.9-8.2,9.7-14.5,9.7c-2.1,0-4.4-0.5-6.5-1.4c-5.8-2.6-9.1-7.4-9.4-13.8c-0.3-6.1,2.4-10.8,7.5-14.2
		c0.7-0.5,1.3-1.6,1.3-2.5c0.1-4.3,0.1-8.6,0.1-13c0,0,0,0,0,0c0-4.4,0-8.9,0-13.3C143,208.9,142.7,208.5,142.2,208.5L142.2,208.5z"
		/>
</g>
</svg>
