<?xml version="1.0" encoding="utf-8"?>
<!-- Generator: Adobe Illustrator 28.2.0, SVG Export Plug-In . SVG Version: 6.00 Build 0)  -->
<svg version="1.1" id="Layer_1" xmlns="http://www.w3.org/2000/svg" xmlns:xlink="http://www.w3.org/1999/xlink" x="0px" y="0px"
	 viewBox="0 0 300 300" style="enable-background:new 0 0 300 300;" xml:space="preserve">
<style type="text/css">
	.st0{fill:url(#SVGID_1_);}
</style>
<linearGradient id="SVGID_1_" gradientUnits="userSpaceOnUse" x1="97.5669" y1="256.3781" x2="229.4075" y2="28.0235">
	<stop  offset="0" style="stop-color:#00426E"/>
	<stop  offset="1" style="stop-color:#C400FF"/>
</linearGradient>
<path class="st0" d="M84.5,156.3c-0.7,6.3,2.4,31.4,4.6,38.3c2-0.6,4.1-1.2,6.1-1.8c7.9-2.3,15.8-4.3,24-5.2
	c7.3-0.9,14.6-1.3,21.9-1.2c2,0,3.3,1.3,3.3,3.3c0.1,2,0.1,3.9,0,5.9c0,1.5-1,2.6-2.5,2.9c-0.4,0.1-0.8,0.1-1.3,0.1
	c-16.2-0.1-31.9,2.9-47.3,7.9c-0.2,0.1-0.4,0.1-0.7,0.3c0.5,1.7,1,3.4,1.6,5.1c4.1,12.2,9.9,23.5,17.2,34c0.2,0.3,0.6,0.6,1,0.7
	c8.6,3.1,17.4,4.5,26.5,4.6c0.9,0,1.8,0,2.7,0.1c1.8,0.2,2.9,1.3,3,3.1c0.1,2,0.1,4,0,6.1c0,1.6-1.1,2.9-2.7,3
	c-1.7,0.2-3.4,0.2-5.1,0.1c-20.1-0.8-38.7-6.3-56-16.7c-8.7-5.2-16.2-11.8-23.1-19.2c-7.5-8.1-14-17-19-26.9
	c-5.1-10-8.4-20.6-10.2-31.7c-1.5-9-1.7-18.1-1.2-27.1c0.6-10.1,2.2-19.9,5.6-29.5C39.5,94,50.4,78.3,65.3,65.6
	c14.5-12.4,31.3-20.4,49.8-24.8c8.6-2,17.3-2.9,26.1-2.9c1.2,0,2.4,0.2,3.1,1.3c0.4,0.6,0.6,1.3,0.6,1.9c0.1,1.7,0,3.5,0,5.2
	c0,2.2-1.2,3.5-3.5,3.5c-10,0.2-19.8,1.9-29.3,4.9c-0.4,0.1-0.9,0.4-1.1,0.8C102.8,67,96.8,79.5,92.5,92.8c0,0.1,0,0.2-0.1,0.4
	c0.3,0.1,0.5,0.3,0.8,0.4c8.7,3.1,17.6,5.3,26.7,6.6c6.9,1,13.8,1.5,20.8,1.5c0.5,0,1,0,1.5,0.1c1.5,0.3,2.5,1.3,2.5,2.9
	c0,1.9,0,3.8,0,5.7c0,2.1-1.2,3.3-3.3,3.3c-2.2,0-4.4,0.1-6.6,0c-9.2-0.2-18.4-1.1-27.5-3c-6-1.3-11.9-2.9-17.6-4.9
	c-0.1,0-0.3-0.1-0.6-0.2c-3.2,12.7-4.4,25.7-4.9,38.9c0.4,0,0.8,0,1.1,0c18.1,0,36.1,0,54.2,0c0.7,0,1.4,0,2.1,0
	c1.8,0.1,2.9,1.2,3,3c0.1,2,0.1,4,0,6c0,1.6-1.2,2.7-2.8,2.8c-0.8,0.1-1.6,0-2.4,0c-18,0-36.1,0-54.1,0
	C85.2,156.3,84.9,156.3,84.5,156.3z M40,144.3c10.7,0,21.2,0,31.8,0c0-0.4,0-0.6,0-0.9c0.3-4.7,0.5-9.4,0.9-14.1
	c0.8-9.1,2.1-18.2,4.1-27.2c0.1-0.6-0.1-0.9-0.6-1.1c-5.2-2.6-10.4-5.1-15.5-7.7c-0.8-0.4-1.5-0.9-2.3-1.3
	C46.1,107.3,40.7,125,40,144.3z M40.1,156.3c1.1,19.3,7,36.8,18.4,52.1c6.3-3.2,12.5-6.2,18.7-9.3c-3.8-13.9-5-28.2-5.4-42.8
	C61.2,156.3,50.8,156.3,40.1,156.3z M66.4,82.1c4.6,2.7,9.4,5.1,14.3,7.2c3-9.1,6.6-17.8,11.1-26.3C87.1,65.1,74,73.3,66.4,82.1z
	 M80.7,211.8c-4.4,2-8.9,4.2-13.1,6.9c3.4,5.2,21.1,19.1,24.8,19.6c-2.1-4.3-4.3-8.6-6.2-13C84.2,220.9,82.5,216.4,80.7,211.8z
	 M159,178c3.4-2.1,6.7-4.1,10.2-6.3c0.4,0.6,0.7,1.2,1,1.8c4.6,8.8,9.3,17.6,13.9,26.4c0.3,0.5,0.5,0.7,1.1,0.7
	c13.7,0,27.5,0,41.2,0c0.8,0,1.2-0.2,1.4-1.1c2.3-9.1,10.2-15.7,19.5-16.6c12.8-1.1,24,7.9,25.3,20.7c1.3,12.4-8.3,27.2-24.9,25.8
	c-9.4-0.8-15.9-6.1-19.4-15c-0.8-2-0.2-1.7-2.3-1.7c-16,0-32,0-48,0c-0.8,0-1.2-0.3-1.6-1c-5.7-11.1-11.5-22.2-17.2-33.2
	C159.2,178.4,159.1,178.3,159,178z M239.2,206c0,6,4.7,10.7,10.5,10.7c5.9,0,10.7-4.7,10.7-10.5c0-5.8-4.8-10.6-10.6-10.6
	C243.8,195.6,239.2,200.1,239.2,206z M169.2,128.6c-3.4-2.2-6.7-4.3-10-6.4c1.9-3.7,3.8-7.4,5.7-11c3.8-7.3,7.7-14.6,11.5-21.9
	c0.3-0.6,0.7-0.9,1.4-0.9c16.2,0,32.4,0,48.6,0c1.1,0,1.4-0.4,1.7-1.3c2.9-9.9,12.6-16.6,22.9-15.9c10.3,0.7,19.2,8.6,21.1,18.7
	c2.2,11.9-5.5,23.9-17.3,26.8c-8.8,2.1-18.3-1.6-23.6-9.2c-1.4-2-2.5-4.1-3.1-6.4c-0.2-0.6-0.5-0.8-1.2-0.8c-14.1,0-28.1,0-42.2,0
	c-0.7,0-0.9,0.3-1.2,0.8c-4.7,8.9-9.4,17.8-14,26.7C169.5,128,169.4,128.2,169.2,128.6z M249.9,83.7c-6,0-10.5,4.6-10.5,10.6
	c0,5.7,4.6,10.3,10.4,10.2c5.7,0,10.5-4.8,10.5-10.6C260.2,88.2,255.6,83.7,249.9,83.7z M159.7,217.1c0.5,1,1.1,2,1.6,3
	c5,9.7,9.9,19.4,14.8,29.1c0.5,0.9,1,1.3,2,1.3c3.1-0.1,6.2,0,9.2,0c0.6,0,0.9-0.1,1.1-0.8c2.5-8.8,8.3-14.2,17.1-16.1
	c9-1.9,16.7,1,22.4,8.1c10.4,12.9,3.6,30.4-8.2,35.8c-9.5,4.4-21,1.5-27.4-6.8c-1.7-2.2-3.1-4.7-3.9-7.4c-0.2-0.8-0.6-1-1.4-1
	c-5.8,0-11.6,0-17.4,0c-0.7,0-1.1-0.2-1.5-0.9c-6-12-11.9-23.9-17.9-35.9c-0.3-0.7-1-1.5-0.8-2c0.2-0.5,1.1-0.9,1.8-1.3
	C154.1,220.5,156.8,218.9,159.7,217.1z M220.8,256c0-5.7-4.6-10.3-10.3-10.3c-6,0-10.5,4.4-10.5,10.4c0,6,4.6,10.6,10.5,10.6
	C216.1,266.7,220.8,261.9,220.8,256z M159.3,83.3c-2.8-1.8-5.5-3.6-8.3-5.3c-1.7-1.1-1.7-1.1-0.8-2.9c6.1-11.9,12.1-23.8,18.2-35.7
	c0.4-0.7,0.8-1,1.6-1c5.7,0,11.3,0,17,0c0.4,0,0.8,0,1.3,0c0.6-2.9,1.7-5.6,3.3-8c3.8-5.6,9.2-8.8,15.8-9.7
	c12.1-1.7,24,7.1,25.8,19.9c0.7,4.9-0.2,9.6-2.5,14c-3.4,6.4-8.4,10.8-15.6,12.2c-8.5,1.7-15.7-0.9-21.6-7.2
	c-2.2-2.4-3.8-5.2-4.8-8.3c-0.2-0.7-0.5-0.9-1.3-0.9c-3.4,0.1-6.9,0.1-10.3,0c-0.6,0-1,0.2-1.2,0.8c-5.3,10.3-10.6,20.6-15.9,31
	C159.8,82.5,159.6,82.8,159.3,83.3z M210.6,33.3c-5.9,0-10.6,4.6-10.6,10.5c0,5.9,4.6,10.6,10.5,10.7c5.8,0.1,10.7-4.8,10.8-10.6
	C221.2,38.1,216.5,33.3,210.6,33.3z M183.4,144.6c4.7,0,9.4,0,14.1,0c0.6,0,0.9-0.1,1.1-0.8c2.1-8.7,9.5-15.3,18.3-16.8
	c12.5-2.2,27,7.9,26.4,23.4c-0.3,9.7-5,17-13.8,21.3c-9.2,4.5-21,1.2-27.3-7.4c-1.6-2.2-2.8-4.5-3.6-7.1c-0.2-0.7-0.5-0.8-1.1-0.8
	c-9.3,0-18.6,0-27.9,0c-2.7,0-3.7-1-3.7-3.7c0-1.6,0-3.1,0-4.7c0-2.3,1.1-3.4,3.5-3.4C174,144.6,178.7,144.6,183.4,144.6
	C183.4,144.6,183.4,144.6,183.4,144.6z M231,149.9c0.1-7.1-6.1-10.7-10.8-10.5c-5.9,0.2-10.4,4.9-10.3,10.9
	c0.1,5.8,4.9,10.5,10.6,10.5C226.4,160.7,231.1,155.8,231,149.9z"/>
</svg>
